<?xml version="1.0" encoding="utf-8"?>
<!-- Generator: Adobe Illustrator 27.8.1, SVG Export Plug-In . SVG Version: 6.00 Build 0)  -->
<svg version="1.1" id="Camada_1" xmlns="http://www.w3.org/2000/svg" xmlns:xlink="http://www.w3.org/1999/xlink" x="0px" y="0px"
	 viewBox="0 0 348.3 97.2" style="enable-background:new 0 0 348.3 97.2;" xml:space="preserve">
<style type="text/css">
	.st0{fill:#ff7816;}
</style>
<path class="st0" d="M9.4,68c-0.8,0.1-1.6,0.2-2.3,0.3s-1.4,0.1-2,0.1s-1.4-0.1-2.2-0.1C2,68.2,1,68.1,0,67.9l15.5-38.7
	c1-0.1,1.8-0.2,2.6-0.3s1.6-0.1,2.5-0.1c0.7,0,1.4,0,2.2,0.1s1.7,0.2,2.8,0.3l8.6,38.7c-2.1,0.3-3.9,0.5-5.5,0.5
	c-0.7,0-1.4,0-2.2-0.1S25,68.1,24.2,68l-1.4-7.5c-1,0.3-2,0.5-3,0.7c-0.9,0.1-1.9,0.2-2.8,0.2c-0.8,0-1.7-0.1-2.5-0.2
	s-1.7-0.3-2.7-0.6L9.4,68z M19.5,39.4l-4.9,13.9c0.6,0.2,1.2,0.3,1.7,0.4c0.5,0.1,1.1,0.2,1.7,0.2s1.2,0,1.8-0.1
	c0.6-0.1,1.2-0.2,1.9-0.4L19.5,39.4z"/>
<path class="st0" d="M45.6,48.7c-0.7,7.7,2.2,11.5,8.6,11.5c1.2,0,2.3-0.1,3.3-0.3s2.3-0.6,3.9-1.1c1,2.6,1.5,5.3,1.7,8
	c-1.1,0.4-2.1,0.7-3,1c-0.9,0.2-1.8,0.4-2.7,0.6s-1.7,0.2-2.5,0.3s-1.7,0.1-2.5,0.1c-3.1,0-5.7-0.5-8-1.5s-4.1-2.4-5.5-4.1
	s-2.4-3.9-3-6.3s-0.7-5.1-0.5-8s0.9-5.6,2-8s2.4-4.6,4.2-6.4s3.8-3.2,6.2-4.2s5.1-1.5,8-1.5c1.7,0,3.4,0.1,4.9,0.4s3.2,0.8,5.1,1.5
	c-0.2,1.5-0.6,2.9-1.2,4.3s-1.2,2.6-1.8,3.7c-0.7-0.2-1.3-0.5-1.9-0.7s-1.1-0.3-1.7-0.4c-0.5-0.1-1.1-0.2-1.6-0.2
	C57,37,56.4,37,55.8,37c-2.9,0-5.3,1-7.1,3C47,41.9,45.9,44.8,45.6,48.7z"/>
<path class="st0" d="M90.1,68.4c-1.3,0-2.9-0.2-4.8-0.5l1.4-15.8h-9.6L75.7,68c-1.9,0.3-3.6,0.5-4.8,0.5c-1.3,0-2.9-0.2-4.8-0.5
	l3.4-38.7c1-0.1,1.9-0.2,2.7-0.3c0.8-0.1,1.5-0.1,2.1-0.1c0.7,0,1.4,0,2.2,0.1c0.8,0.1,1.7,0.2,2.6,0.3l-1.3,14.4h9.6l1.3-14.4
	c1-0.1,1.9-0.2,2.7-0.3c0.8-0.1,1.5-0.1,2.2-0.1s1.4,0,2.2,0.1c0.8,0.1,1.7,0.2,2.6,0.3L94.9,68C93,68.3,91.4,68.4,90.1,68.4z"/>
<path class="st0" d="M122.1,47.8c-0.1,1.3-0.4,2.7-0.9,4.2h-10.5l-0.7,7.7h13.6c0.2,1.5,0.2,2.9,0.1,4.1c-0.1,1.3-0.4,2.8-0.9,4.3
	h-23l3.4-39H126c0.1,0.8,0.1,1.5,0.1,2.2s0,1.3-0.1,2c-0.1,1.2-0.4,2.6-0.8,4.3H112l-0.5,6H122C122.1,45.2,122.2,46.6,122.1,47.8z"
	/>
<path class="st0" d="M131.5,68.4c-1.3,0-2.9-0.2-4.8-0.5l3.4-38.7c1-0.1,1.9-0.2,2.7-0.3c0.8-0.1,1.5-0.1,2.1-0.1s1.4,0,2.2,0.1
	s1.7,0.2,2.6,0.3L136.3,68C134.3,68.3,132.7,68.4,131.5,68.4z"/>
<path d="M199.3,29.3c0.8-0.1,2.1-0.3,3.9-0.5c1.7-0.2,3.9-0.3,6.5-0.3c1.9,0,3.8,0.2,5.8,0.5s3.6,1,5.1,2s2.6,2.4,3.4,4.2
	s1.1,4.2,0.9,7c-0.2,2.6-0.8,4.7-1.7,6.4s-2.1,3-3.4,4.1s-2.9,1.7-4.6,2.2c-1.7,0.4-3.4,0.7-5.1,0.7c-0.7,0-1.4,0-2.1-0.1
	s-1.2-0.1-1.5-0.2l-1.1,12.6c-1,0.2-1.8,0.3-2.6,0.4s-1.5,0.1-2.1,0.1c-1.3,0-2.8-0.2-4.7-0.5L199.3,29.3z M207.1,47.6
	c0.2,0.1,0.5,0.1,0.9,0.2c0.4,0,0.9,0,1.4,0c1.6,0,2.9-0.5,3.9-1.3c1.1-0.9,1.7-2.3,1.8-4.1c0.1-1.1,0-2-0.2-2.7s-0.6-1.3-1.1-1.8
	s-1.1-0.8-1.8-1s-1.5-0.3-2.2-0.3c-0.2,0-0.5,0-0.8,0s-0.6,0-0.9,0L207.1,47.6z"/>
<path d="M229.4,29.3c0.8-0.1,1.5-0.2,2.2-0.3c0.7-0.1,1.3-0.1,1.9-0.1c0.6,0,1.3,0,2,0.1s1.3,0.2,1.8,0.3L248,50.5l1.9-21.2
	c0.9-0.1,1.8-0.2,2.6-0.3c0.8-0.1,1.4-0.1,2.1-0.1c0.6,0,1.3,0,1.9,0.1c0.7,0.1,1.4,0.2,2.1,0.3L255.2,68c-0.4,0.1-0.9,0.2-1.6,0.3
	s-1.4,0.2-2.2,0.2c-0.9,0-1.7-0.1-2.4-0.2s-1.2-0.2-1.6-0.3l-10.8-21.1L234.7,68c-1.6,0.3-3.1,0.5-4.4,0.5s-2.8-0.2-4.3-0.5
	L229.4,29.3z"/>
<path d="M282.4,47.8c-0.1,1.3-0.4,2.7-0.9,4.2H271l-0.7,7.7H284c0.2,1.5,0.2,2.9,0.1,4.1c-0.1,1.3-0.4,2.8-0.9,4.3H260l3.4-39h22.9
	c0.1,0.8,0.1,1.5,0.1,2.2s0,1.3-0.1,2c-0.1,1.2-0.4,2.6-0.8,4.3h-13.3l-0.5,6h10.5C282.4,45.2,282.5,46.6,282.4,47.8z"/>
<path d="M301.6,68.7c-2.9,0-5.3-0.4-7.2-1.2s-3.3-1.9-4.3-3.4s-1.6-3.3-1.9-5.5c-0.3-2.1-0.3-4.5,0-7.2l1.9-22.2
	c1.1-0.1,2-0.2,2.7-0.3c0.8,0,1.5-0.1,2.2-0.1c0.6,0,1.3,0,2,0.1c0.7,0,1.6,0.1,2.7,0.3l-1.8,21c-0.2,1.8-0.2,3.3-0.2,4.6
	s0.2,2.3,0.5,3.1s0.8,1.4,1.5,1.7s1.5,0.5,2.7,0.5s2-0.2,2.8-0.5c0.7-0.3,1.3-0.9,1.8-1.7s0.8-1.8,1-3.1s0.4-2.8,0.6-4.6l1.8-21
	c1.1-0.1,2-0.2,2.8-0.3c0.7,0,1.4-0.1,2-0.1s1.4,0,2.1,0.1c0.8,0,1.6,0.1,2.7,0.3l-2,22.2c-0.2,2.7-0.7,5.1-1.3,7.2
	c-0.6,2.1-1.6,4-2.8,5.5c-1.2,1.5-2.9,2.7-4.9,3.4C307,68.3,304.5,68.7,301.6,68.7z"/>
<path d="M338.5,44.3c1.5,0.6,2.8,1.2,3.9,1.9c1.1,0.6,2.1,1.4,2.9,2.3s1.4,2,1.7,3.2c0.4,1.2,0.5,2.8,0.3,4.5
	c-0.2,1.9-0.6,3.6-1.5,5.2c-0.8,1.5-1.9,2.8-3.3,3.9s-3.1,1.9-5,2.6c-2,0.6-4.1,0.9-6.6,0.9c-2.2,0-4.2-0.2-5.9-0.5
	s-3.5-0.9-5.4-1.7c0.2-1.3,0.6-2.6,1.1-4s1-2.9,1.7-4.4c3.2,1.5,6,2.2,8.5,2.2c1.8,0,3.3-0.3,4.4-0.8c1.1-0.6,1.7-1.5,1.8-2.9
	c0-0.6,0-1.1-0.2-1.5s-0.4-0.8-0.8-1.1c-0.3-0.3-0.7-0.5-1.2-0.7c-0.4-0.2-0.9-0.4-1.3-0.6l-2.9-1.1c-1.3-0.5-2.4-1-3.4-1.7
	s-1.9-1.4-2.5-2.3s-1.2-1.9-1.5-3.1c-0.3-1.2-0.4-2.5-0.3-4.1c0.2-1.9,0.6-3.6,1.4-5.1s1.8-2.7,3.1-3.8c1.3-1,2.8-1.8,4.5-2.3
	s3.6-0.8,5.6-0.8c1.8,0,3.6,0.2,5.3,0.5c1.7,0.4,3.5,0.9,5.4,1.6c-0.2,1.2-0.6,2.4-1.1,3.8s-1.1,2.7-1.8,3.9c-0.9-0.4-2-0.8-3.2-1.2
	s-2.8-0.7-4.7-0.7c-0.6,0-1.1,0-1.7,0.2c-0.5,0.1-1,0.3-1.5,0.5c-0.4,0.2-0.8,0.6-1.1,1c-0.3,0.4-0.5,0.9-0.5,1.5
	c-0.1,1,0.2,1.8,0.8,2.3c0.6,0.5,1.4,0.9,2.3,1.3L338.5,44.3z"/>
<path d="M162.7,47.7l-0.5,5.7l-7.5,2.5l0.2-2.2l4.5-2l-0.1-0.3l-4.2,0.9l0.2-2.2L162.7,47.7z M162.2,54.2l-7.5,2.5l-0.2,2.2l4.2-0.9
	l0.1,0.3l-4.5,2l-0.2,2.2l7.5-2.5L162.2,54.2z M161.1,67.2l-7.5,2.5l-0.2,2.2l4.2-0.9l0.1,0.3l-4.5,2l-0.2,2.2l7.5-2.5L161.1,67.2z
	 M154.2,63.2l-0.2,2.2l4.2-0.9l0.1,0.3l-4.5,2l-0.2,2.2l7.5-2.5l0.5-5.7L154.2,63.2z M162.8,12.3l0.1,0.3l-4.5,2l-0.2,2.2l7.5-2.5
	l0.5-5.7l-7.5,2.5l-0.2,2.2L162.8,12.3z M152.9,76.2l-0.2,2.2l4.2-1l0.1,0.3l-4.4,2l-0.2,2.2l7.5-2.6l0.5-5.7L152.9,76.2z
	 M152.3,84.1h3.7l0.4-0.1v0.1h3.1l0.3-3.9l-7.5,2.6V84.1z M164.5,28l-7.5,2.6l-0.2,2.2l4.2-1l0.1,0.3l-4.4,2l-0.2,2.2l7.5-2.6
	L164.5,28z M158.3,4.6l-5.6-0.8c-0.1,0.2-0.1,0.4-0.1,0.6l-0.4,5l5.7,0.8L158.3,4.6z M163.5,41l-7.5,2.6l-0.2,2.2l4.2-1l0.1,0.3
	l-4.4,2l-0.2,2.2l7.5-2.6L163.5,41z M158.7,0h-1.5c-1.8,0-3.5,1.1-4.3,2.8l5.5,0.8L158.7,0z M157.6,11.1l-5.6-0.8l-0.5,5.6l5.6,0.8
	L157.6,11.1z M165.7,15l-7.5,2.5l-0.2,2.2l4.2-0.9l0.1,0.3l-4.5,2l-0.2,2.2l7.5-2.5L165.7,15z M157.5,24.1l-0.2,2.2l4.2-1l0.1,0.3
	l-4.4,2l-0.2,2.2l7.5-2.6l0.5-5.7L157.5,24.1z M156.5,37.1l-0.2,2.2l4.2-1l0.1,0.3l-4.4,2l-0.2,2.2l7.5-2.6l0.5-5.7L156.5,37.1z
	 M157,17.6l-5.6-0.8l-0.5,5.6l5.6,0.8L157,17.6z M166.8,2l-7.5,2.5l-0.2,2.2l4.2-0.9l0.1,0.3l-4.5,2l-0.2,2.2l7.5-2.5L166.8,2z
	 M181.5,23.2l0.2-2.2l-5.6-2.7l5.7,1.3l0.2-2.2l-7-2.5l-0.5,5.8L181.5,23.2z M182.9,8l-5.6-2.7l5.7,1.3l0.2-2.2l-7-2.5l-0.5,5.8
	l7,2.5L182.9,8z M182.3,14.5l-5.6-2.7l5.7,1.3l0.2-2.2l-7-2.5l-0.5,5.8l7,2.5L182.3,14.5z M181.6,24l-7-2.6l-0.5,5.8l7,2.6l0.2-2.2
	l-5.6-2.7l5.7,1.4L181.6,24z M183.5,0h-1.1l1.1,0.2V0z M166.8,0h-3.7l-3.6,1.6l-0.2,2.2l7.5-2.5V0z M183.5,1.1L181,0h-4.7l-0.1,1.2
	l7,2.5L183.5,1.1z M180.9,30.5l-7-2.6l-0.5,5.8l7,2.6l0.2-2.2l-5.6-2.7l5.7,1.4L180.9,30.5z M185.5,0h-1l-0.3,3.5l5-0.7
	C188.8,1.1,187.3,0,185.5,0z M178,63.1l-7-2.5l-0.5,5.8l7,2.5l0.2-2.2l-5.6-2.7l5.7,1.3L178,63.1z M177,76.1l-7-2.6l-0.5,5.8l7,2.6
	l0.2-2.2l-5.6-2.7l5.7,1.4L177,76.1z M177.4,69.6l-7-2.5l-0.5,5.8l7,2.5l0.2-2.2l-5.6-2.7l5.7,1.3L177.4,69.6z M180.3,37l-7-2.6
	l-0.5,5.8l7,2.6l0.2-2.2l-5.6-2.7l5.7,1.4L180.3,37z M159.6,0v0.2l1.1-0.2C160.7,0,159.6,0,159.6,0z M179.6,43.5l-7-2.6l-0.5,5.8
	l7,2.6l0.2-2.2l-5.6-2.7l5.7,1.4L179.6,43.5z M178.6,56.6l-7-2.5l-0.5,5.8l7,2.5l0.2-2.2l-5.6-2.7l5.7,1.3L178.6,56.6z M179.2,50.1
	l-7-2.5l-0.5,5.8l7,2.5l0.2-2.2l-5.6-2.7l5.7,1.3L179.2,50.1z M167.7,97.2h3l-1.5-0.7l3.1,0.7h2.6l0.1-1.6l-7-2.6L167.7,97.2z
	 M177.4,81.7l5.4-0.8l0.5-5.6l-5.4,0.8L177.4,81.7z M178.1,75.2l5.3-0.8l0.5-5.6l-5.3,0.8L178.1,75.2z M179.1,62.2l5.4-0.8l0.5-5.6
	l-5.4,0.8L179.1,62.2z M177.3,84.1h5.3l0.2-2.2l-5.4,0.8L177.3,84.1z M178.6,68.8L184,68l0.5-5.6l-5.3,0.8L178.6,68.8z M176.4,94.8
	l5.2-0.7c0.2-0.4,0.2-0.8,0.3-1.2l0.2-2.8h-5.3L176.4,94.8z M169.3,80.1l-0.4,4h2.7l-1.2-0.6l2.5,0.6h3.3l0.1-1.5L169.3,80.1z
	 M176.2,97.2h0.9c1.5,0,3-0.8,3.9-2.2l-4.7,0.7L176.2,97.2z M184.2,4.5l-0.5,5.6l5.3-0.8l0.4-5c0-0.2,0-0.4,0-0.6L184.2,4.5z
	 M156.6,24.1l-5.6-0.8l-0.5,5.6l5.6,0.8L156.6,24.1z M183.2,16.6l5.2-0.7l0.5-5.6l-5.2,0.8L183.2,16.6z M182.7,23.1l5.2-0.8l0.5-5.6
	l-5.2,0.8L182.7,23.1z M175.5,91.3l0.1-1.2h-5.3L175.5,91.3z M181,42.7l5.2-0.8l0.5-5.6l-5.2,0.8L181,42.7z M180.5,49.1l5.2-0.8
	l0.5-5.6l-5.2,0.8L180.5,49.1z M181.5,36.1l5.3-0.8l0.5-5.6l-5.3,0.8L181.5,36.1z M179.7,55.7l5.4-0.8l0.5-5.6l-5.4,0.8L179.7,55.7z
	 M182,29.6l5.3-0.8l0.5-5.6l-5.3,0.8L182,29.6z M153.1,63.3l-5.5-0.8l-0.5,5.6l5.5,0.8L153.1,63.3z M153.7,56.7l-5.6-0.8l-0.5,5.6
	l5.6,0.8L153.7,56.7z M152,76.2l-5.5-0.8L146,81l5.5,0.8L152,76.2z M152.4,69.8L147,69l-0.5,5.6l5.4,0.8L152.4,69.8z M154.3,50.2
	l-5.6-0.8l-0.5,5.6l5.6,0.8L154.3,50.2z M155.9,30.6l-5.6-0.8l-0.5,5.6l5.6,0.8L155.9,30.6z M155.3,37.2l-5.5-0.8l-0.5,5.6l5.5,0.8
	L155.3,37.2z M154.7,43.7l-5.4-0.8l-0.5,5.6l5.4,0.8L154.7,43.7z M151.7,91.4l4.2-1l0.1,0.3l-4.4,2l-0.2,2.2l7.5-2.6l0.2-2.3h-7.2
	L151.7,91.4z M168.4,90.1l-0.2,2.2l7,2.6l0.2-2.2l-5.3-2.6C170.1,90.1,168.4,90.1,168.4,90.1z M168.1,0l-0.4,5.2l3.4-1l-3.5,2
	l-0.4,5l3.4-1l-3.5,2l-0.5,5.4l3.5-1l-3.6,2L166,24l3.2-0.9l-3.2,1.8l-0.5,5.5l3.2-0.9l-3.3,1.9l-0.5,5.8l3.1-0.9l-3.2,1.8l-0.5,5.5
	l3.2-0.9l-3.3,1.9l-0.4,4.9l3.3-0.9l-3.4,1.9l-0.5,5.5l3.4-1l-3.5,2l-0.5,5.4l3.1-0.9l-3.1,1.8l-0.5,5.5l3.1-0.9L162,70l-0.5,5.8
	l3.1-0.9l-3.1,1.8l-0.5,5.5l3.1-0.9l-3.2,1.8l-0.1,0.8h6.7l0.1-0.9l-2.6-1.6l2.7,0.8l0.5-5.7l-2.5-1.6l2.6,0.8l0.5-5.9l-2.6-1.6
	l2.7,0.8l0.5-5.7l-2.5-1.6l2.6,0.8L170,57l-2.8-1.8l2.9,0.9l0.5-5.6l-2.8-1.7l2.8,0.8l0.4-5l-2.7-1.7l2.8,0.8l0.5-5.6l-2.6-1.6
	l2.7,0.8l0.5-5.9l-2.7-1.7l2.8,0.8l0.5-5.6l-2.6-1.6l2.7,0.8l0.5-5.5l-2.9-1.8l3,0.9l0.5-5.5l-2.8-1.8l2.9,0.9l0.4-5.2l-2.8-1.8
	l2.9,0.9l0.4-5.1L168.1,0L168.1,0L168.1,0z M151.3,97.2h3.1l1.1-0.2l0.1,0.2h3l0.4-4.1l-7.5,2.6L151.3,97.2z M148.9,97.2h1.1
	l0.1-1.4l-4.7-0.7C146.1,96.4,147.4,97.2,148.9,97.2z M144.9,92.9c0,0.4,0,0.8,0.1,1.2l5.2,0.8l0.4-4.8h-5.5L144.9,92.9z
	 M145.9,81.9l-0.1,2.2h5.4l0.1-1.4L145.9,81.9z M159.5,97.2h6.9l0.1-0.8l-2.4-1.5l2.5,0.7l0.5-5.5h-6.9l-0.5,5.6l2.9-0.8l-3,1.7
	L159.5,97.2z"/>
</svg>
